HIERARCHY
ROOT Hips
{
	OFFSET 0.000000 0.000000 0.000000 
	CHANNELS 6 Xposition Yposition Zposition Zrotation Yrotation Xrotation
	JOINT LeftUpLeg
	{
		OFFSET 1.363060 -1.794630 0.839290 
		CHANNELS 3 Zrotation Yrotation Xrotation
		JOINT LeftLeg
		{
			OFFSET 2.448110 -6.726130 0.000000 
			CHANNELS 3 Zrotation Yrotation Xrotation
			JOINT LeftFoot
			{
				OFFSET 2.562200 -7.039590 0.000000 
				CHANNELS 3 Zrotation Yrotation Xrotation
				JOINT LeftToeBase
				{
					OFFSET 0.157640 -0.433110 2.322550 
					CHANNELS 3 Zrotation Yrotation Xrotation
					End Site
					{
						OFFSET 0.000000 0.000000 0.000000 
					}
				}
			}
		}
	}
	JOINT RightUpLeg
	{
		OFFSET -1.305520 -1.794630 0.839290 
		CHANNELS 3 Zrotation Yrotation Xrotation
		JOINT RightLeg
		{
			OFFSET -2.542530 -6.985550 0.000000 
			CHANNELS 3 Zrotation Yrotation Xrotation
			JOINT RightFoot
			{
				OFFSET -2.568260 -7.056230 0.000000 
				CHANNELS 3 Zrotation Yrotation Xrotation
				JOINT RightToeBase
				{
					OFFSET -0.164730 -0.452590 2.363150 
					CHANNELS 3 Zrotation Yrotation Xrotation
					End Site
					{
						OFFSET 0.000000 0.000000 0.000000 
					}
				}
			}
		}
	}
	JOINT Spine
	{
		OFFSET 0.028270 2.035590 -0.193380 
		CHANNELS 3 Zrotation Yrotation Xrotation
		JOINT Spine1
		{
			OFFSET 0.056720 2.048850 -0.042750 
			CHANNELS 3 Zrotation Yrotation Xrotation
			JOINT Neck1
			{
				OFFSET -0.054170 1.746240 0.172020 
				CHANNELS 3 Zrotation Yrotation Xrotation
				JOINT Head
				{
					OFFSET 0.104070 1.761360 -0.123970 
					CHANNELS 3 Zrotation Yrotation Xrotation
					End Site
					{
						OFFSET 0.000000 0.000000 0.000000 
					}
				}
			}
			JOINT LeftArm
			{
				OFFSET 3.362410 1.200890 -0.311210 
				CHANNELS 3 Zrotation Yrotation Xrotation
				JOINT LeftForeArm
				{
					OFFSET 4.983000 -0.000000 -0.000000 
					CHANNELS 3 Zrotation Yrotation Xrotation
					JOINT LeftHand
					{
						OFFSET 3.483560 -0.000000 -0.000000 
						CHANNELS 3 Zrotation Yrotation Xrotation
						JOINT LeftHandIndex1
						{
							OFFSET 0.715260 -0.000000 -0.000000 
							CHANNELS 3 Zrotation Yrotation Xrotation
							End Site
							{
								OFFSET 0.000000 0.000000 0.000000 
							}
						}
					}
				}
			}
			JOINT RightArm
			{
				OFFSET -3.136600 1.374050 -0.404650 
				CHANNELS 3 Zrotation Yrotation Xrotation
				JOINT RightForeArm
				{
					OFFSET -5.241900 -0.000000 -0.000000 
					CHANNELS 3 Zrotation Yrotation Xrotation
					JOINT RightHand
					{
						OFFSET -3.444170 -0.000000 -0.000000 
						CHANNELS 3 Zrotation Yrotation Xrotation
						JOINT RightHandIndex1
						{
							OFFSET -0.622530 -0.000000 -0.000000 
							CHANNELS 3 Zrotation Yrotation Xrotation
							End Site
							{
								OFFSET 0.000000 0.000000 0.000000 
							}
						}
					}
				}
			}
		}
	}
}
MOTION
Frames: 13
Frame Time: 0.041667
0.781875 18.203552 0.393042 0.083200 11.746222 29.964870 -10.952834 -28.879004 -30.997502 -0.776700 3.339093 13.783387 -2.446594 10.949611 6.954430 0.793000 -5.684300 -15.871100 8.695966 25.359203 -34.994846 0.946611 -6.039370 18.798307 3.313104 -21.332967 -21.051305 -1.196500 -6.940700 19.539900 23.559593 2.398494 1.544097 -5.416199 1.023132 -17.662878 -11.194386 -5.017209 -7.894016 -4.424400 -2.582200 -1.606600 -87.623679 15.878946 -31.345863 38.016986 -46.675023 -13.946280 0.072711 2.830137 -41.646071 -7.125000 0.000000 0.000000 74.974682 -11.176323 -58.497468 -53.651821 51.820077 -22.674404 0.724513 0.541776 157.639385 7.125000 0.000000 0.000000 
0.779471 18.207960 0.404163 0.026144 11.695154 29.868421 -10.887977 -28.937554 -30.727821 -0.793531 3.281374 13.655974 -2.513862 11.180529 6.874418 0.778800 -5.634300 -15.726900 8.743259 25.423943 -34.754939 0.963653 -5.977111 18.689029 3.250841 -21.128837 -21.195736 -1.291100 -7.199500 20.307800 23.612923 2.390433 1.506536 -5.407355 1.017042 -17.554832 -11.271666 -5.005582 -7.807325 -4.447700 -2.575900 -1.581900 -87.799727 15.905657 -31.261923 37.974521 -46.635056 -13.918198 0.068075 2.825953 -41.631317 -7.125000 0.000000 0.000000 75.073249 -11.191898 -58.214357 -53.692380 51.823186 -22.694039 0.707892 0.525138 157.514347 7.125000 0.000000 0.000000 
0.780573 18.212770 0.417187 0.085923 11.619661 29.791778 -10.955472 -29.077265 -30.405600 -0.809363 3.214620 13.527221 -2.590709 11.441322 6.766693 0.761900 -5.574400 -15.554300 8.689801 25.382887 -34.521338 0.981117 -5.927147 18.584704 3.170501 -20.844326 -21.339097 -1.385700 -7.448200 21.050100 23.571847 2.371631 1.430933 -5.350198 1.006119 -17.442200 -11.900553 -5.074883 -7.946679 -4.212500 -2.576000 -1.425600 -87.966368 15.954162 -31.177555 37.919504 -46.582684 -13.879478 0.068107 2.823703 -41.583712 -7.125000 0.000000 0.000000 75.123719 -11.171227 -58.068237 -53.693880 51.818734 -22.696212 0.712620 0.522132 157.538590 7.125000 0.000000 0.000000 
0.778569 18.216677 0.424802 0.114444 11.487415 29.741687 -10.988548 -29.150647 -30.150675 -0.828512 3.151723 13.386840 -2.668152 11.714449 6.670160 0.769600 -5.601900 -15.633600 8.686871 25.386295 -34.380579 0.992980 -5.882794 18.473642 3.276961 -21.137637 -21.097046 -1.267700 -7.136600 20.120700 23.490951 2.409803 1.268027 -5.325946 1.009050 -17.391196 -12.071125 -5.061627 -7.899090 -4.265900 -2.565200 -1.423100 -88.063476 16.005786 -31.109424 37.804321 -46.491479 -13.800917 0.068248 2.826732 -41.510169 -7.125000 0.000000 0.000000 75.235452 -11.125022 -57.994148 -53.746634 51.844067 -22.743852 0.717172 0.533764 157.714032 7.125000 0.000000 0.000000 
0.774261 18.219282 0.429410 0.098065 11.345474 29.649578 -11.004330 -29.118851 -29.911097 -0.847647 3.096433 13.254226 -2.722078 11.910787 6.687909 0.804000 -5.722800 -15.982300 8.716689 25.466579 -34.219225 1.001053 -5.838511 18.387238 3.357128 -21.370394 -20.943005 -1.180700 -6.896100 19.408000 23.364442 2.460298 1.172647 -5.356625 1.019015 -17.352652 -12.078387 -5.066798 -7.999853 -4.263700 -2.560200 -1.468000 -88.072331 16.008505 -30.946392 37.674264 -46.393399 -13.713259 0.067155 2.826450 -41.521324 -7.125000 0.000000 0.000000 75.425666 -11.103236 -57.818769 -53.787559 51.856694 -22.768983 0.695976 0.533570 157.837055 7.125000 0.000000 0.000000 
0.770654 18.220484 0.435322 0.112622 11.223322 29.513523 -11.033750 -29.158635 -29.610926 -0.864094 3.036898 13.128748 -2.780095 12.111211 6.688862 0.814900 -5.760400 -16.090800 8.717507 25.515540 -34.003816 1.005759 -5.800812 18.332902 3.323298 -21.225647 -20.951583 -1.231500 -7.037700 19.827000 23.239336 2.450123 1.205608 -5.353582 1.017708 -17.329930 -12.080030 -5.076549 -8.009291 -4.262600 -2.563500 -1.474400 -88.100495 15.935886 -30.842976 37.517826 -46.281382 -13.608244 0.069353 2.813656 -41.508909 -7.125000 0.000000 0.000000 75.608186 -11.066303 -57.566637 -53.892767 51.896083 -22.846141 0.682427 0.526366 157.937094 7.125000 0.000000 0.000000 
0.765845 18.221185 0.440932 0.080741 11.113117 29.389192 -10.970733 -29.245795 -29.334511 -0.880540 2.977812 12.995876 -2.858429 12.383935 6.623668 0.789400 -5.671800 -15.835200 8.750712 25.606072 -33.816414 1.008066 -5.770764 18.308699 3.250036 -20.985526 -21.079996 -1.321100 -7.279600 20.546400 23.158998 2.431241 1.236835 -5.335894 1.008959 -17.324034 -12.196983 -5.048039 -7.728153 -4.308500 -2.558900 -1.382200 -88.203891 15.904861 -30.768061 37.455087 -46.235753 -13.569175 0.066283 2.812115 -41.658882 -7.125000 0.000000 0.000000 75.740476 -11.004384 -57.274210 -53.998039 51.940474 -22.931482 0.687981 0.513576 158.119355 7.125000 0.000000 0.000000 
0.761036 18.223790 0.446943 0.139744 10.963018 29.226786 -11.056018 -29.299561 -28.996890 -0.898093 2.917776 12.884863 -2.926374 12.590152 6.467994 0.732400 -5.467700 -15.247600 8.693640 25.679844 -33.585158 1.009544 -5.746781 18.294614 3.185887 -20.776859 -21.231350 -1.432200 -7.566900 21.406000 23.017577 2.414766 1.269206 -5.304073 1.006199 -17.352706 -12.276577 -5.018847 -7.464007 -4.331800 -2.549700 -1.305000 -88.306771 15.928091 -30.615728 37.478431 -46.251780 -13.590223 0.062399 2.824827 -42.048488 -7.125000 0.000000 0.000000 75.849628 -10.948708 -57.029971 -54.058337 51.969919 -22.985488 0.698654 0.501871 158.387230 7.125000 0.000000 0.000000 
0.756928 18.226195 0.449649 0.224034 10.861082 29.172687 -11.172501 -29.313422 -28.797835 -0.916079 2.862786 12.763856 -2.966162 12.724373 6.435875 0.723600 -5.435600 -15.155300 8.633573 25.690013 -33.510939 1.006699 -5.744254 18.283961 3.293558 -21.092709 -21.021889 -1.270800 -7.145000 20.145800 22.944736 2.407600 1.202287 -5.261854 1.006361 -17.298987 -12.284073 -4.997502 -7.398498 -4.318900 -2.536000 -1.291700 -88.440033 15.909734 -30.529811 37.501173 -46.265936 -13.608787 0.063564 2.827387 -42.258974 -7.125000 0.000000 0.000000 75.912089 -10.854011 -56.838392 -54.070873 51.976419 -22.997147 0.699754 0.487142 158.777205 7.125000 0.000000 0.000000 
0.751017 18.226796 0.448647 0.246608 10.832996 29.260717 -11.103055 -29.436130 -28.778412 -0.930250 2.815536 12.627267 -3.017030 12.931717 6.445621 0.740600 -5.497700 -15.333600 8.586893 25.746126 -33.590123 1.006327 -5.743317 18.261076 3.368879 -21.328660 -20.877247 -1.176700 -6.885000 19.375200 22.937823 2.408945 1.044999 -5.242245 0.997965 -17.149326 -12.248958 -4.960396 -7.372530 -4.299200 -2.517300 -1.278000 -88.535086 15.859147 -30.420366 37.484521 -46.248281 -13.599397 0.061360 2.829858 -42.425705 -7.125000 0.000000 0.000000 75.990225 -10.691810 -56.752379 -54.021245 51.960893 -22.964489 0.702089 0.484988 159.175976 7.125000 0.000000 0.000000 
0.746008 18.226796 0.449448 0.276065 10.750819 29.302194 -11.057617 -29.558933 -28.696878 -0.942261 2.774951 12.523326 -3.081256 13.164056 6.340405 0.677700 -5.263600 -14.662000 8.488593 25.843747 -33.582527 1.010344 -5.727680 18.223306 3.323085 -21.187246 -20.975466 -1.274400 -7.154600 20.174200 22.882344 2.434604 0.851580 -5.216231 0.997166 -17.046221 -12.228018 -4.928704 -7.386386 -4.285100 -2.498400 -1.284000 -88.595186 15.861856 -30.334596 37.371495 -46.159187 -13.522821 0.061985 2.826450 -42.517826 -7.125000 0.000000 0.000000 76.096461 -10.567016 -56.684496 -53.918024 51.925811 -22.893384 0.702229 0.496973 159.498175 7.125000 0.000000 0.000000 
0.741599 18.227998 0.454758 0.242536 10.655617 29.211081 -11.009413 -29.609962 -28.515746 -0.947156 2.753855 12.479946 -3.137342 13.360541 6.299297 0.685600 -5.293700 -14.748100 8.520266 25.940778 -33.415108 1.019031 -5.684671 18.152392 3.327971 -21.200867 -20.995352 -1.291800 -7.201500 20.313600 22.779357 2.430428 0.784714 -5.230330 0.983478 -17.022276 -12.241087 -4.879614 -7.262235 -4.291900 -2.477300 -1.246200 -88.643711 15.817114 -30.438004 37.210729 -46.043532 -13.413892 0.059464 2.809475 -42.352017 -7.125000 0.000000 0.000000 76.213933 -10.428217 -56.603273 -53.803591 51.892345 -22.816776 0.700850 0.521178 159.881667 7.125000 0.000000 0.000000 
0.736390 18.229201 0.461070 0.214717 10.531805 29.085402 -11.003332 -29.598247 -28.329207 -0.950953 2.741807 12.465764 -3.174160 13.474442 6.240628 0.709200 -5.382200 -15.001800 8.518318 26.104690 -33.193010 1.029881 -5.628627 18.064388 3.333532 -21.232637 -21.073709 -1.283100 -7.178100 20.244200 22.677750 2.409977 0.821752 -5.219398 0.978789 -16.998769 -12.244113 -4.876621 -7.194175 -4.298400 -2.479100 -1.223200 -88.693876 15.723029 -30.574719 37.142876 -45.999600 -13.369436 0.051760 2.803786 -42.312222 -7.125000 0.000000 0.000000 76.318257 -10.260848 -56.443001 -53.671503 51.848153 -22.720504 0.685367 0.533572 160.127770 7.125000 0.000000 0.000000 
